<?xml version="1.0" encoding="utf-8"?>
<!-- Generator: Adobe Illustrator 25.3.1, SVG Export Plug-In . SVG Version: 6.00 Build 0)  -->
<svg version="1.1" id="Layer_1" xmlns="http://www.w3.org/2000/svg" xmlns:xlink="http://www.w3.org/1999/xlink" x="0px" y="0px"
	 viewBox="0 0 350 110" style="enable-background:new 0 0 350 110;" xml:space="preserve">
<style type="text/css">
	.st0{fill:#00B8FF;}
	.st1{fill:#314F88;}
	.st2{fill:#1E2127;}
</style>
<g>
	<path class="st0" d="M49.3,42.94c-1.1,1.54-2.62,2.78-4.55,3.72c-1.93,0.94-4.25,1.41-6.95,1.41h-5.51L30.07,60.7h-6.64l5.84-32.89
		h12.11c3.36,0,5.91,0.75,7.63,2.24c1.73,1.49,2.59,3.48,2.59,5.96c0,0.72-0.06,1.38-0.19,1.98C51.1,39.75,50.4,41.4,49.3,42.94z
		 M42.7,41.57c1.04-0.88,1.7-2.07,1.98-3.58c0.06-0.28,0.09-0.69,0.09-1.22c0-2.48-1.54-3.72-4.62-3.72h-5.18l-1.74,9.85h5.23
		C40.25,42.89,41.66,42.45,42.7,41.57z"/>
	<path class="st0" d="M66.49,35.54c1.51-0.88,3.14-1.32,4.9-1.32l-1.23,6.93h-1.74c-1.95,0-3.51,0.42-4.69,1.27
		c-1.18,0.85-2.03,2.29-2.57,4.33L58.72,60.7h-6.64l4.62-26.1h6.64l-0.8,4.62C63.67,37.64,64.99,36.42,66.49,35.54z"/>
	<path class="st0" d="M82.37,34.6l-4.62,26.1h-6.64l4.62-26.1H82.37z M77.14,30.59c-0.63-0.6-0.94-1.35-0.94-2.26
		c0-1.26,0.48-2.33,1.44-3.23c0.96-0.9,2.08-1.34,3.37-1.34c1,0,1.82,0.3,2.45,0.89c0.63,0.6,0.94,1.35,0.94,2.26
		c0,1.26-0.47,2.33-1.41,3.23c-0.94,0.9-2.06,1.34-3.34,1.34C78.6,31.49,77.77,31.19,77.14,30.59z"/>
	<path class="st0" d="M127.89,36.43c1.6,1.48,2.4,3.57,2.4,6.27c0,1.01-0.08,1.9-0.24,2.69l-2.73,15.31h-6.55l2.54-14.42
		c0.09-0.57,0.14-1.11,0.14-1.65c0-1.51-0.42-2.66-1.25-3.46c-0.83-0.8-2.02-1.2-3.56-1.2c-1.82,0-3.36,0.54-4.62,1.62
		c-1.26,1.08-2.04,2.65-2.36,4.69v-0.05l-2.59,14.47h-6.55l2.54-14.42c0.09-0.57,0.14-1.1,0.14-1.6c0-1.54-0.42-2.71-1.27-3.51
		c-0.85-0.8-2.04-1.2-3.58-1.2c-1.73,0-3.21,0.51-4.45,1.53s-2.05,2.47-2.43,4.36L90.86,60.7h-6.64l4.62-26.1h6.64l-0.57,3.11
		c1.04-1.07,2.28-1.92,3.72-2.54c1.44-0.63,2.97-0.94,4.57-0.94c2.04,0,3.79,0.43,5.23,1.3c1.44,0.86,2.47,2.1,3.06,3.7
		c1.1-1.51,2.54-2.72,4.31-3.63c1.77-0.91,3.62-1.37,5.54-1.37C124.11,34.22,126.29,34.96,127.89,36.43z"/>
	<path class="st0" d="M157.62,36.93c1.95,1.84,2.92,4.31,2.92,7.42c0,1.01-0.08,1.9-0.24,2.69c-0.19,0.94-0.39,1.76-0.61,2.45
		h-19.08c-0.03,0.22-0.05,0.54-0.05,0.94c0,1.63,0.48,2.91,1.44,3.84c0.96,0.93,2.22,1.39,3.79,1.39c1.32,0,2.46-0.29,3.42-0.87
		c0.96-0.58,1.74-1.34,2.33-2.29h7.11c-1.16,2.51-2.96,4.58-5.39,6.2c-2.43,1.62-5.19,2.43-8.27,2.43c-3.33,0-6-0.94-8.01-2.83
		c-2.01-1.88-3.02-4.44-3.02-7.68c0-0.94,0.09-1.93,0.28-2.97c0.47-2.7,1.44-5.07,2.9-7.11s3.28-3.61,5.44-4.71
		c2.17-1.1,4.54-1.65,7.12-1.65C153.04,34.17,155.67,35.09,157.62,36.93z M153.85,44.4c0-1.51-0.49-2.69-1.46-3.53
		c-0.97-0.85-2.25-1.27-3.82-1.27c-1.67,0-3.16,0.53-4.48,1.58c-1.32,1.05-2.25,2.49-2.78,4.31h12.44
		C153.82,44.98,153.85,44.62,153.85,44.4z"/>
	<path class="st1" d="M198.71,27.81v5.32h-8.76V60.7h-6.6V33.13h-8.76v-5.32H198.71z"/>
	<path class="st1" d="M213.43,35.4c1.37-0.78,2.93-1.18,4.69-1.18v6.93h-1.74c-2.07,0-3.64,0.49-4.69,1.46
		c-1.05,0.97-1.58,2.67-1.58,5.09v13h-6.6V34.6h6.6v4.05C210.96,37.27,212.07,36.18,213.43,35.4z"/>
	<path class="st1" d="M222.43,40.53c1.05-2.04,2.48-3.61,4.29-4.71s3.82-1.65,6.06-1.65c1.95,0,3.65,0.39,5.11,1.18
		c1.46,0.79,2.63,1.78,3.51,2.97V34.6h6.64v26.1h-6.64v-3.82c-0.85,1.23-2.02,2.24-3.51,3.04c-1.49,0.8-3.21,1.2-5.16,1.2
		c-2.2,0-4.2-0.57-6.01-1.7s-3.24-2.72-4.29-4.78c-1.05-2.06-1.58-4.42-1.58-7.09C220.85,44.91,221.38,42.57,222.43,40.53z
		 M240.46,43.52c-0.63-1.15-1.48-2.03-2.54-2.64c-1.07-0.61-2.21-0.92-3.44-0.92c-1.23,0-2.36,0.3-3.39,0.89
		c-1.04,0.6-1.88,1.47-2.52,2.62c-0.64,1.15-0.97,2.51-0.97,4.08c0,1.57,0.32,2.95,0.97,4.12s1.49,2.08,2.54,2.71
		c1.05,0.63,2.17,0.94,3.37,0.94c1.22,0,2.37-0.31,3.44-0.92c1.07-0.61,1.92-1.49,2.54-2.64c0.63-1.15,0.94-2.52,0.94-4.12
		C241.4,46.05,241.08,44.67,240.46,43.52z"/>
</g>
<g>
	<path class="st1" d="M310.68,49.63H291.6c0.16,1.88,0.82,3.36,1.98,4.43c1.16,1.07,2.59,1.6,4.29,1.6c2.45,0,4.19-1.05,5.23-3.16
		h7.12c-0.75,2.51-2.2,4.58-4.33,6.2c-2.14,1.62-4.76,2.43-7.87,2.43c-2.51,0-4.77-0.56-6.76-1.67c-2-1.11-3.55-2.69-4.67-4.74
		s-1.67-4.4-1.67-7.07c0-2.7,0.55-5.07,1.65-7.11s2.64-3.61,4.62-4.71c1.98-1.1,4.26-1.65,6.83-1.65c2.48,0,4.7,0.53,6.67,1.6
		c1.96,1.07,3.49,2.58,4.57,4.55c1.08,1.96,1.62,4.22,1.62,6.76C310.87,48.02,310.81,48.87,310.68,49.63z M304.04,45.2
		c-0.03-1.7-0.64-3.05-1.84-4.08c-1.19-1.02-2.65-1.53-4.38-1.53c-1.63,0-3.01,0.49-4.12,1.48c-1.12,0.99-1.8,2.36-2.05,4.12H304.04
		z"/>
	<path class="st1" d="M322.27,25.83V60.7h-6.6V25.83H322.27z"/>
</g>
<g>
	<g>
		<path class="st0" d="M280.4,33.13c0-0.01,0-0.02,0-0.02c0-7.39-5.99-13.38-13.38-13.38c-7.39,0-13.38,5.99-13.38,13.38
			c0,0.58,0.04,1.16,0.11,1.72c1.12,10.97,13.28,23.6,13.28,23.6s13.36-14.29,13.36-25.26C280.4,33.16,280.4,33.14,280.4,33.13z
			 M267.04,41.43c-4.63,0-8.38-3.75-8.38-8.38c0-4.63,3.75-8.38,8.38-8.38c4.63,0,8.38,3.75,8.38,8.38
			C275.42,37.68,271.66,41.43,267.04,41.43z"/>
		<circle class="st0" cx="267.37" cy="66.18" r="4.55"/>
	</g>
</g>
<g>
	<g>
		<path class="st2" d="M251.25,90.39c-0.18-0.18-0.27-0.41-0.27-0.69c0-0.37,0.14-0.7,0.42-0.97c0.28-0.27,0.61-0.41,0.97-0.41
			c0.29,0,0.52,0.09,0.7,0.27c0.18,0.18,0.26,0.41,0.26,0.69c0,0.37-0.14,0.7-0.42,0.97c-0.28,0.27-0.6,0.41-0.96,0.41
			C251.66,90.66,251.43,90.57,251.25,90.39z"/>
		<path class="st2" d="M259.43,83.74c0.49-0.69,1.09-1.22,1.81-1.59c0.72-0.37,1.5-0.56,2.34-0.56c1.07,0,1.9,0.25,2.51,0.76
			c0.61,0.51,0.96,1.23,1.04,2.17h-1.97c-0.09-0.44-0.28-0.78-0.59-1.02c-0.31-0.25-0.73-0.37-1.26-0.37
			c-0.75,0-1.39,0.26-1.92,0.79s-0.88,1.27-1.06,2.22c-0.05,0.34-0.08,0.62-0.08,0.83c0,0.7,0.18,1.25,0.53,1.62
			c0.35,0.38,0.84,0.57,1.47,0.57c1.06,0,1.83-0.46,2.34-1.39h1.97c-0.42,0.9-1.02,1.61-1.82,2.14c-0.79,0.53-1.71,0.79-2.76,0.79
			c-1.11,0-1.99-0.32-2.64-0.95s-0.98-1.5-0.98-2.58c0-0.33,0.03-0.67,0.1-1.02C258.62,85.23,258.94,84.43,259.43,83.74z"/>
		<path class="st2" d="M272.97,90.23c-0.57-0.31-1-0.75-1.32-1.31c-0.31-0.57-0.47-1.21-0.47-1.94c0-0.99,0.23-1.9,0.7-2.72
			c0.46-0.82,1.1-1.47,1.92-1.95c0.82-0.48,1.73-0.72,2.73-0.72c0.75,0,1.41,0.16,1.98,0.47c0.58,0.31,1.03,0.75,1.35,1.31
			c0.33,0.56,0.49,1.21,0.49,1.94c0,0.99-0.24,1.9-0.72,2.72c-0.48,0.82-1.13,1.47-1.95,1.94s-1.73,0.71-2.74,0.71
			C274.19,90.7,273.54,90.54,272.97,90.23z M276.84,88.64c0.51-0.35,0.9-0.8,1.19-1.38c0.29-0.57,0.43-1.18,0.43-1.83
			c0-0.74-0.21-1.3-0.62-1.7c-0.42-0.4-0.94-0.6-1.57-0.6c-0.62,0-1.17,0.17-1.66,0.52c-0.49,0.35-0.86,0.81-1.14,1.39
			c-0.27,0.58-0.41,1.2-0.41,1.86c0,0.71,0.2,1.27,0.58,1.66c0.39,0.39,0.89,0.59,1.51,0.59C275.77,89.16,276.33,88.99,276.84,88.64
			z"/>
		<path class="st2" d="M298.97,82.34c0.55,0.5,0.83,1.21,0.83,2.13c0,0.25-0.03,0.54-0.08,0.88l-0.93,5.2h-1.81l0.88-4.93
			c0.04-0.3,0.06-0.51,0.06-0.64c0-0.59-0.16-1.04-0.49-1.34c-0.33-0.31-0.78-0.46-1.35-0.46c-0.69,0-1.28,0.21-1.75,0.63
			c-0.47,0.42-0.78,1.03-0.9,1.82l-0.88,4.93h-1.81l0.88-4.93c0.04-0.3,0.06-0.51,0.06-0.64c0-0.59-0.16-1.04-0.49-1.34
			c-0.33-0.31-0.78-0.46-1.35-0.46c-0.69,0-1.28,0.21-1.75,0.63c-0.47,0.42-0.78,1.03-0.9,1.82v-0.05l-0.88,4.98h-1.82l1.55-8.82
			h1.82l-0.18,1.02c0.35-0.36,0.78-0.65,1.27-0.86s1.01-0.31,1.54-0.31c0.7,0,1.31,0.15,1.82,0.45c0.51,0.3,0.86,0.73,1.06,1.3
			c0.35-0.53,0.84-0.96,1.46-1.27c0.62-0.32,1.25-0.47,1.9-0.47C297.68,81.59,298.42,81.84,298.97,82.34z"/>
		<path class="st2" d="M304.33,90.39c-0.18-0.18-0.27-0.41-0.27-0.69c0-0.37,0.14-0.7,0.42-0.97c0.28-0.27,0.61-0.41,0.97-0.41
			c0.29,0,0.52,0.09,0.7,0.27c0.18,0.18,0.26,0.41,0.26,0.69c0,0.37-0.14,0.7-0.42,0.97c-0.28,0.27-0.6,0.41-0.96,0.41
			C304.75,90.66,304.51,90.57,304.33,90.39z"/>
		<path class="st2" d="M313.93,88.1c-0.02,0.15-0.03,0.25-0.03,0.29c0,0.22,0.07,0.39,0.21,0.49s0.37,0.15,0.69,0.15h1.12
			l-0.27,1.52h-1.44c-0.7,0-1.24-0.14-1.62-0.42c-0.37-0.28-0.56-0.73-0.56-1.35c0-0.24,0.02-0.46,0.06-0.67l0.86-4.88h-1.04
			l0.26-1.49h1.06l0.38-2.19h1.84l-0.38,2.19h2.13l-0.26,1.49h-2.14L313.93,88.1z"/>
		<path class="st2" d="M324.92,82.04c0.5-0.3,1.05-0.45,1.66-0.45l-0.34,1.89h-0.46c-0.7,0-1.27,0.18-1.7,0.53
			c-0.43,0.35-0.73,0.96-0.9,1.82l-0.83,4.72h-1.82l1.55-8.82h1.82l-0.27,1.55C323.99,82.76,324.42,82.34,324.92,82.04z"/>
	</g>
</g>
</svg>
